# xmcd CD database file
#
# Track frame offsets:
#	150
#	21061
#	43089
#	81007
#	104060
#	132875
#	162743
#	183256
#	211862
#	239400
#
# Disc length: 3593 seconds
#
# Revision: 1
# Processed by: cddbd v1.5.2PL0 Copyright (c) Steve Scherf et al.
# Submitted via: CDex 1.51
#
DISCID=860e070a
DTITLE=Various Artist - my first jazz-lonley midnight jazz.ccd
DYEAR=1997
DGENRE=Jazz
TTITLE0=My Romance -- Kimiko Itoh
TTITLE1=My Funny Valentine -- Richard Tee
TTITLE2=Good Bless The Child -- Phil Woods, Vincent Herring, Antonio Hart
TTITLE3=Prelude to a Kiss -- Kimito Itoh
TTITLE4=Kenny -- Niels.H.Q.Pedersen
TTITLE5=You are My Everthing -- Essence All Stars,Feat-Wallace Roney
TTITLE6=Smoke Get In your Eyes -- Stephane Grappelli
TTITLE7=Adagio -- Charlie Mariano
TTITLE8=Suave -- Essence All Stars,Feat-Wallace Roney
TTITLE9=If You See Me Looking Blue --  Ralph McDonald
EXTD=YEAR: 1997
EXTT0=
EXTT1=
EXTT2=
EXTT3=
EXTT4=
EXTT5=
EXTT6=
EXTT7=
EXTT8=
EXTT9=
PLAYORDER=
